<?xml version="1.0" encoding="UTF-8" standalone="no"?>
<!-- Created with Inkscape (http://www.inkscape.org/) -->

<svg
   width="452.92499mm"
   height="452.92508mm"
   viewBox="0 0 452.92499 452.92508"
   version="1.1"
   id="svg1"
   xmlns="http://www.w3.org/2000/svg"
   xmlns:svg="http://www.w3.org/2000/svg">
  <defs
     id="defs1">
    <clipPath
       clipPathUnits="userSpaceOnUse"
       id="clipPath25">
      <g
         id="g26"
         style="display:none">
        <path
           style="fill:#013471;fill-opacity:1;stroke:none;stroke-width:0;stroke-linecap:round;stroke-linejoin:round;stroke-dasharray:none;stroke-opacity:1;paint-order:markers fill stroke"
           d="M 348.16656,79.358381 267.28194,160.243 253.11695,149.63303 334.09142,68.658363 Z"
           id="path25" />
        <path
           style="fill:#013471;fill-opacity:1;stroke:none;stroke-width:0;stroke-linecap:round;stroke-linejoin:round;stroke-dasharray:none;stroke-opacity:1;paint-order:markers fill stroke"
           d="m 433.96197,163.28798 -71.72311,71.7232 -12.38751,-12.38751 70.03554,-70.03565 z"
           id="path26" />
      </g>
      <path
         id="lpe_path-effect26"
         class="powerclip"
         d="M 21.458382,74.403267 H 425.59681 V 478.54169 H 21.458382 Z M 348.16656,79.358381 334.09142,68.658363 253.11695,149.63303 267.28194,160.243 Z m 85.79541,83.929599 -14.07508,-10.69996 -70.03554,70.03565 12.38751,12.38751 z" />
    </clipPath>
  </defs>
  <g
     id="layer1"
     transform="translate(-26.458383,-20.616611)">
    <path
       style="fill:none;stroke:#3b94fd;stroke-width:53.0253;stroke-linecap:round;stroke-linejoin:round;stroke-dasharray:none;stroke-opacity:1;paint-order:markers fill stroke"
       id="rect1"
       width="341.11313"
       height="341.11313"
       x="52.971031"
       y="105.91592"
       rx="30.755911"
       clip-path="url(#clipPath25)"
       d="M 83.726942,105.91592 H 363.32825 c 17.03877,0 30.75591,13.71713 30.75591,30.75591 v 279.6013 c 0,17.03878 -13.71714,30.75592 -30.75591,30.75592 H 83.726942 c -17.038775,0 -30.755911,-13.71714 -30.755911,-30.75592 v -279.6013 c 0,-17.03878 13.717136,-30.75591 30.755911,-30.75591 z" />
    <rect
       style="display:inline;fill:#3b94fd;fill-opacity:1;stroke:none;stroke-width:61.2288;stroke-linecap:round;stroke-linejoin:round;stroke-dasharray:none;stroke-opacity:1;paint-order:markers fill stroke"
       id="rect2"
       width="102.49518"
       height="351.31754"
       x="-404.80096"
       y="-64.526848"
       rx="23.338226"
       transform="rotate(-135)" />
    <path
       style="fill:#3b94fd;fill-opacity:1;stroke:none;stroke-width:51.7221;stroke-linecap:round;stroke-linejoin:round;stroke-dasharray:none;stroke-opacity:1;paint-order:markers fill stroke"
       id="path2"
       d="m 127.34844,55.474865 -96.08528,0 -96.085286,0 48.042642,-83.212296 48.042643,-83.212299 48.042641,83.212296 z"
       transform="matrix(-0.36260765,-0.36260765,0.27837426,-0.27837426,211.05223,311.62029)" />
  </g>
</svg>
